<?xml version="1.0" encoding="iso-8859-1"?>
<!-- Generator: Adobe Illustrator 19.0.0, SVG Export Plug-In . SVG Version: 6.00 Build 0)  -->
<svg xmlns="http://www.w3.org/2000/svg" xmlns:xlink="http://www.w3.org/1999/xlink" version="1.1" id="Layer_1" x="0px" y="0px" viewBox="0 0 475.037 475.037" style="enable-background:new 0 0 475.037 475.037;" xml:space="preserve" width="512px" height="512px">
<g transform="translate(0 -540.36)">
	<g>
		<g>
			<path d="M475.018,775.088c-0.4-62.9-25.5-122.1-70.8-166.5c-45.6-44.8-105.8-69-169.5-68.2c-131,1.6-236.3,109.4-234.7,240.3     c0.8,63.5,26.2,122.9,71.5,167.2c44.7,43.6,103.4,67.5,165.8,67.5c1,0,2,0,3,0c63.1-0.4,122.3-25.5,166.6-70.6     C451.618,899.288,475.818,838.988,475.018,775.088z M396.218,934.188c-41.5,42.3-96.9,65.7-156.1,66.1     c-59.4,0.7-115.6-21.7-158.1-63.2c-42.5-41.4-66.3-97.1-67-156.6c-1.5-122.6,97.1-223.6,219.9-225.1c0.9,0,1.9,0,2.8,0     c58.6,0,114,22.6,156,63.9c42.4,41.6,65.9,97,66.3,155.9C460.718,835.088,438.118,891.588,396.218,934.188z" fill="#FFFFFF"/>
			<path d="M342.518,610.388c-31.5-19.8-67.9-30.3-105.1-30.3s-73.5,10.5-105.1,30.3c-31.6,19.8-56.9,48.1-73.1,81.7     c-1.8,3.7-0.2,8.2,3.5,10c3.7,1.8,8.2,0.2,10-3.5c30.4-62.9,95-103.6,164.7-103.6c69.7,0,134.4,40.7,164.7,103.6     c1.3,2.6,4,4.2,6.8,4.2h0c1.1,0,2.2-0.2,3.2-0.7c3.7-1.8,5.3-6.3,3.5-10C399.318,658.488,374.118,630.288,342.518,610.388z" fill="#FFFFFF"/>
			<path d="M312.118,691.888l-77.6,77.6c-2.9,2.9-2.9,7.7,0,10.6c1.5,1.5,3.4,2.2,5.3,2.2c2,0,3.9-0.7,5.3-2.2l77.6-77.6     c2.9-2.9,2.9-7.7,0-10.6C319.818,688.988,315.018,688.988,312.118,691.888z" fill="#FFFFFF"/>
			<path d="M277.018,770.388c-4.1,0-7.5,3.4-7.5,7.5c0,17.3-14.1,31.4-32.2,32.1c-17.6-0.1-31.9-14.1-31.9-31.3c0-0.1,0-0.2,0-0.3     c-0.3-8.6,2.9-17.1,8.9-23.3c5.8-6,13.4-9.3,21.6-9.3c4.1,0,7.5-3.4,7.5-7.5s-3.4-7.5-7.5-7.5c-12.3,0-23.8,5-32.4,13.9     c-8.7,9.1-13.5,21.5-13.1,34.1c0.1,25.5,21.2,46.2,47.1,46.2l0,0c0.1,0,0.2,0,0.2,0c26.2-1,46.8-21.7,46.8-47.1     C284.518,773.788,281.118,770.388,277.018,770.388z" fill="#FFFFFF"/>
		</g>
	</g>
</g>
<g>
</g>
<g>
</g>
<g>
</g>
<g>
</g>
<g>
</g>
<g>
</g>
<g>
</g>
<g>
</g>
<g>
</g>
<g>
</g>
<g>
</g>
<g>
</g>
<g>
</g>
<g>
</g>
<g>
</g>
</svg>
