<?xml version="1.0" encoding="iso-8859-1"?>
<!-- Generator: Adobe Illustrator 16.0.0, SVG Export Plug-In . SVG Version: 6.00 Build 0)  -->
<!DOCTYPE svg PUBLIC "-//W3C//DTD SVG 1.1//EN" "http://www.w3.org/Graphics/SVG/1.1/DTD/svg11.dtd">
<svg xmlns="http://www.w3.org/2000/svg" xmlns:xlink="http://www.w3.org/1999/xlink" version="1.1" id="Capa_1" x="0px" y="0px" width="512px" height="512px" viewBox="0 0 53.908 53.909" style="enable-background:new 0 0 53.908 53.909;" xml:space="preserve">
<g>
	<g id="_x32_4_1_">
		<g>
			<path d="M53.226,43.86l-2.412-4.892c-1.681-3.411-5.865-5.483-9.13-5.769c-1.151-0.099-3.331-0.484-5.183-0.92     c-1.486-0.349-2.35-0.623-2.829-0.801c0.117-0.431,0.333-0.863,0.66-1.312c3.683-2.896,5.875-7.728,5.875-12.958     c0-8.587-5.928-15.572-13.212-15.572S13.783,8.622,13.783,17.209c0,5.233,2.193,10.062,5.873,12.96     c0.323,0.433,0.547,0.875,0.667,1.327c-0.49,0.188-1.363,0.469-2.87,0.82c-2.074,0.481-4.174,0.866-5.231,0.955     c-3.166,0.271-7.439,2.411-9.138,5.854l-2.403,5.021c-0.898,1.817-0.908,3.911-0.024,5.334c1.082,1.745,2.774,2.789,4.528,2.789     h43.536c1.749,0,3.44-1.041,4.527-2.789C54.138,48.052,54.127,45.687,53.226,43.86z M51.16,48.183     c-0.487,0.785-1.387,1.627-2.439,1.627H5.185c-1.057,0-1.953-0.839-2.44-1.625c-0.425-0.683-0.364-1.923,0.146-2.959l2.403-5.022     c1.246-2.525,4.606-4.26,7.137-4.479c1.433-0.12,3.901-0.62,5.58-1.01c3.562-0.831,4.224-1.395,4.441-1.579     c0.28-0.24,0.439-0.594,0.432-0.964c-0.027-1.286-0.491-2.508-1.364-3.616c-0.067-0.091-0.146-0.17-0.238-0.237     c-3.155-2.424-5.04-6.575-5.04-11.108c0-7.229,4.824-13.11,10.755-13.11c5.932,0,10.753,5.881,10.753,13.109     c0,4.532-1.884,8.684-5.04,11.102c-0.081,0.062-0.158,0.143-0.221,0.223c-0.888,1.119-1.351,2.338-1.38,3.621     c-0.007,0.368,0.148,0.721,0.425,0.957c0.209,0.182,0.843,0.731,4.406,1.567c1.951,0.457,4.279,0.865,5.532,0.974     c2.551,0.223,5.918,1.932,7.138,4.407l2.412,4.892C51.58,46.086,51.544,47.567,51.16,48.183z" fill="#FFFFFF"/>
		</g>
	</g>
</g>
<g>
</g>
<g>
</g>
<g>
</g>
<g>
</g>
<g>
</g>
<g>
</g>
<g>
</g>
<g>
</g>
<g>
</g>
<g>
</g>
<g>
</g>
<g>
</g>
<g>
</g>
<g>
</g>
<g>
</g>
</svg>
